<svg width="12" height="24" viewBox="0 0 12 24" fill="none" xmlns="http://www.w3.org/2000/svg">
<path d="M10.647 23.752C10.7176 23.8305 10.804 23.8931 10.9005 23.9359C10.997 23.9786 11.1015 24.0005 11.207 24C11.3128 24.0006 11.4174 23.9788 11.5141 23.9361C11.6108 23.8933 11.6973 23.8306 11.768 23.752C11.9173 23.5878 12 23.3739 12 23.152C12 22.9301 11.9173 22.7162 11.768 22.552L1.91305 12L11.768 1.448C11.9173 1.28382 12 1.06989 12 0.848005C12 0.626117 11.9173 0.412194 11.768 0.248005C11.6971 0.170003 11.6106 0.107683 11.5142 0.0650384C11.4178 0.0223941 11.3135 0.000366211 11.208 0.000366211C11.1026 0.000366211 10.9983 0.0223941 10.9019 0.0650384C10.8055 0.107683 10.719 0.170003 10.648 0.248005L0.231049 11.4C-0.0789518 11.731 -0.0789518 12.269 0.231049 12.6L10.647 23.752Z" fill="#818C99"/>
</svg>
