<svg width="12" height="24" viewBox="0 0 12 24" fill="none" xmlns="http://www.w3.org/2000/svg">
<path d="M1.35295 23.752C1.28235 23.8305 1.19597 23.8931 1.09946 23.9359C1.00295 23.9786 0.898499 24.0005 0.792952 24C0.687236 24.0006 0.582592 23.9788 0.485901 23.9361C0.38921 23.8933 0.302663 23.8306 0.231952 23.752C0.0826994 23.5878 0 23.3739 0 23.152C0 22.9301 0.0826994 22.7162 0.231952 22.552L10.087 12L0.231952 1.448C0.0826994 1.28382 0 1.06989 0 0.848005C0 0.626117 0.0826994 0.412194 0.231952 0.248005C0.3029 0.170003 0.389362 0.107683 0.485796 0.0650384C0.58223 0.0223941 0.686509 0.000366211 0.791952 0.000366211C0.897394 0.000366211 1.00167 0.0223941 1.09811 0.0650384C1.19454 0.107683 1.281 0.170003 1.35195 0.248005L11.769 11.4C12.079 11.731 12.079 12.269 11.769 12.6L1.35295 23.752Z" fill="white"/>
</svg>
